<svg xmlns="http://www.w3.org/2000/svg" viewBox="0 0 880 330" width="880" height="330" font-family="ui-monospace, 'SF Mono', 'Courier New', monospace" role="img" aria-label="lucenityOS — a terminal-driven portfolio by Nafees S">
<defs>
<style>
  .win  { opacity: 0; }
  .zz   { opacity: 0; }
  .scan { opacity: 0; }
  @keyframes fadein { from { opacity: 0; transform: translateY(6px); } to { opacity: 1; transform: translateY(0); } }
  @keyframes blink  { 0%,49% { opacity: 1 } 50%,100% { opacity: 0 } }
  @keyframes dot    { 0%,55% { opacity: 1 } 70%,100% { opacity: .18 } }
  @keyframes crton  { 0% { opacity: 0; transform: scaleY(.02) } 42% { opacity: 1; transform: scaleY(1.05) } 64% { transform: scaleY(.98) } 100% { opacity: 1; transform: scaleY(1) } }
  @keyframes zrise  { 0% { opacity: 0; transform: translateY(0) } 22% { opacity: .85 } 100% { opacity: 0; transform: translateY(-15px) } }
  @keyframes scan   { 0% { transform: translateY(0); opacity: 0 } 10% { opacity: .07 } 90% { opacity: .07 } 100% { transform: translateY(250px); opacity: 0 } }
  @media (prefers-reduced-motion: no-preference) {
    .boot { opacity: 0; transform-box: fill-box; animation: fadein .5s ease forwards; }
    .b1{animation-delay:.15s} .b2{animation-delay:.32s} .b3{animation-delay:.48s}
    .b4{animation-delay:.64s} .b5{animation-delay:.80s} .b6{animation-delay:.96s}
    .b7{animation-delay:1.14s} .b8{animation-delay:1.4s}
    .win    { transform-box: fill-box; transform-origin: 703px 158px; animation: crton .5s ease 1.7s forwards; }
    .cursor { animation: blink 1.05s steps(1) infinite; }
    .odot   { animation: dot 1.6s ease-in-out infinite; }
    .scan   { animation: scan 5s linear infinite; }
    .zz     { animation: zrise 3.4s ease-in-out infinite; }
    .z2 { animation-delay: 1.1s } .z3 { animation-delay: 2.2s }
  }
</style>
</defs>

<!-- desktop -->
<rect x="3" y="3" width="874" height="324" rx="16" fill="#0d0d0d" stroke="#2a2a2a" stroke-width="2"/>
<g stroke="#17181a" stroke-width="1">
<line x1="40" y1="18" x2="40" y2="312"/><line x1="80" y1="18" x2="80" y2="312"/>
<line x1="120" y1="18" x2="120" y2="312"/><line x1="160" y1="18" x2="160" y2="312"/>
<line x1="200" y1="18" x2="200" y2="312"/><line x1="240" y1="18" x2="240" y2="312"/>
<line x1="280" y1="18" x2="280" y2="312"/><line x1="320" y1="18" x2="320" y2="312"/>
<line x1="360" y1="18" x2="360" y2="312"/><line x1="400" y1="18" x2="400" y2="312"/>
<line x1="440" y1="18" x2="440" y2="312"/><line x1="480" y1="18" x2="480" y2="312"/>
<line x1="520" y1="18" x2="520" y2="312"/><line x1="560" y1="18" x2="560" y2="312"/>
<line x1="600" y1="18" x2="600" y2="312"/><line x1="640" y1="18" x2="640" y2="312"/>
<line x1="680" y1="18" x2="680" y2="312"/><line x1="720" y1="18" x2="720" y2="312"/>
<line x1="760" y1="18" x2="760" y2="312"/><line x1="800" y1="18" x2="800" y2="312"/>
<line x1="840" y1="18" x2="840" y2="312"/>
<line x1="18" y1="40" x2="862" y2="40"/><line x1="18" y1="80" x2="862" y2="80"/>
<line x1="18" y1="120" x2="862" y2="120"/><line x1="18" y1="160" x2="862" y2="160"/>
<line x1="18" y1="200" x2="862" y2="200"/><line x1="18" y1="240" x2="862" y2="240"/>
<line x1="18" y1="280" x2="862" y2="280"/>
</g>
<path d="M 42 26 L 26 26 L 26 42" fill="none" stroke="#f4f4f4" stroke-width="3"/>
<path d="M 838 26 L 854 26 L 854 42" fill="none" stroke="#f4f4f4" stroke-width="3"/>
<path d="M 42 304 L 26 304 L 26 288" fill="none" stroke="#f4f4f4" stroke-width="3"/>
<path d="M 838 304 L 854 304 L 854 288" fill="none" stroke="#f4f4f4" stroke-width="3"/>

<text x="46" y="52" font-size="12" letter-spacing="3" fill="#808080">// LUCENITYOS &#183; v1.1</text>
<circle class="odot" cx="726" cy="48" r="5" fill="#f4f4f4"/>
<text x="740" y="52" font-size="12" letter-spacing="3" fill="#808080">ONLINE</text>

<!-- bios stamp -->
<g class="boot b1">
<rect x="46" y="70" width="188" height="40" rx="4" fill="none" stroke="#333333"/>
<text x="60" y="90" font-size="15" font-weight="700" letter-spacing="1" fill="#f4f4f4">lucenityOS</text>
<text x="60" y="104" font-size="9.5" letter-spacing="1" fill="#808080">bios &#183; mono / 64k</text>
</g>

<!-- boot self-checks (the real ones from boot.ts) -->
<g font-size="12.5">
<text class="boot b2" x="50" y="132" fill="#9a9a9a">&#9679; cpu ................ ok</text>
<text class="boot b3" x="50" y="150" fill="#9a9a9a">&#9679; memory ............. 640k (plenty)</text>
<text class="boot b4" x="50" y="168" fill="#9a9a9a">&#9679; pixel shaders ...... ok</text>
<text class="boot b5" x="50" y="186" fill="#9a9a9a">&#9679; crt scanlines ...... flickering nicely</text>
<text class="boot b6" x="50" y="204" fill="#9a9a9a">&#9679; liffy.service ...... loaded</text>
<text class="boot b7" x="50" y="222" fill="#9a9a9a">&#9679; cat daemon ......... asleep (do not wake)</text>
<text class="boot b8" x="50" y="240" fill="#c2c2c2">mounting /home/visitor ... done</text>
</g>

<!-- drop to prompt -->
<text class="boot b8" x="50" y="276" font-size="13.5" letter-spacing=".3"><tspan fill="#f4f4f4">visitor@lucenity</tspan><tspan fill="#808080">:~$ </tspan><tspan fill="#f4f4f4">help</tspan><tspan class="cursor" fill="#f4f4f4" dx="2">&#9608;</tspan></text>

<!-- a window pops up: about -->
<g class="win">
<rect x="556" y="70" width="294" height="176" rx="8" fill="#111111" stroke="#f4f4f4" stroke-width="2.5"/>
<line x1="556" y1="98" x2="850" y2="98" stroke="#2a2a2a" stroke-width="1.5"/>
<circle cx="574" cy="84" r="3.2" fill="none" stroke="#808080" stroke-width="1.2"/>
<circle cx="588" cy="84" r="3.2" fill="none" stroke="#808080" stroke-width="1.2"/>
<circle cx="602" cy="84" r="3.2" fill="none" stroke="#808080" stroke-width="1.2"/>
<rect x="826" y="79" width="9" height="9" rx="1.5" fill="none" stroke="#808080" stroke-width="1.2"/>
<text x="703" y="88" font-size="11" letter-spacing="2" fill="#9a9a9a" text-anchor="middle">about &#8212; visitor</text>
<text x="572" y="126" font-size="11" fill="#808080">~ $ whoami</text>
<text x="572" y="148" font-size="14" font-weight="700"><tspan fill="#f4f4f4">nafees s</tspan><tspan fill="#808080" font-weight="400" font-size="11"> &#183; lucenity0</tspan></text>
<text x="572" y="170" font-size="10.5" fill="#9a9a9a">builds terminals, cats, and</text>
<text x="572" y="185" font-size="10.5" fill="#9a9a9a">small, good software.</text>
<g font-size="10" letter-spacing="1.5" fill="#c8c8c8">
<rect x="572" y="200" width="38" height="20" rx="3" fill="none" stroke="#3a3a3a"/><text x="591" y="214" text-anchor="middle">TS</text>
<rect x="618" y="200" width="52" height="20" rx="3" fill="none" stroke="#3a3a3a"/><text x="644" y="214" text-anchor="middle">VITE</text>
<rect x="678" y="200" width="46" height="20" rx="3" fill="none" stroke="#3a3a3a"/><text x="701" y="214" text-anchor="middle">CRT</text>
</g>
<!-- the cat, asleep, exact sprite -->
<g>
<rect x="776" y="150" width="3" height="3" fill="#f0f0f0"/>
<rect x="800" y="150" width="3" height="3" fill="#f0f0f0"/>
<rect x="773" y="153" width="3" height="3" fill="#f0f0f0"/>
<rect x="776" y="153" width="3" height="3" fill="#f0f0f0"/>
<rect x="779" y="153" width="3" height="3" fill="#f0f0f0"/>
<rect x="797" y="153" width="3" height="3" fill="#f0f0f0"/>
<rect x="800" y="153" width="3" height="3" fill="#f0f0f0"/>
<rect x="803" y="153" width="3" height="3" fill="#f0f0f0"/>
<rect x="773" y="156" width="3" height="3" fill="#f0f0f0"/>
<rect x="779" y="156" width="3" height="3" fill="#f0f0f0"/>
<rect x="782" y="156" width="3" height="3" fill="#f0f0f0"/>
<rect x="797" y="156" width="3" height="3" fill="#f0f0f0"/>
<rect x="803" y="156" width="3" height="3" fill="#f0f0f0"/>
<rect x="806" y="156" width="3" height="3" fill="#f0f0f0"/>
<rect x="773" y="159" width="3" height="3" fill="#f0f0f0"/>
<rect x="782" y="159" width="3" height="3" fill="#f0f0f0"/>
<rect x="785" y="159" width="3" height="3" fill="#f0f0f0"/>
<rect x="794" y="159" width="3" height="3" fill="#f0f0f0"/>
<rect x="797" y="159" width="3" height="3" fill="#f0f0f0"/>
<rect x="806" y="159" width="3" height="3" fill="#f0f0f0"/>
<rect x="809" y="159" width="3" height="3" fill="#f0f0f0"/>
<rect x="773" y="162" width="3" height="3" fill="#f0f0f0"/>
<rect x="779" y="162" width="3" height="3" fill="#f0f0f0"/>
<rect x="782" y="162" width="3" height="3" fill="#f0f0f0"/>
<rect x="785" y="162" width="3" height="3" fill="#f0f0f0"/>
<rect x="788" y="162" width="3" height="3" fill="#f0f0f0"/>
<rect x="791" y="162" width="3" height="3" fill="#f0f0f0"/>
<rect x="794" y="162" width="3" height="3" fill="#f0f0f0"/>
<rect x="797" y="162" width="3" height="3" fill="#f0f0f0"/>
<rect x="800" y="162" width="3" height="3" fill="#f0f0f0"/>
<rect x="809" y="162" width="3" height="3" fill="#f0f0f0"/>
<rect x="812" y="162" width="3" height="3" fill="#f0f0f0"/>
<rect x="773" y="165" width="3" height="3" fill="#f0f0f0"/>
<rect x="776" y="165" width="3" height="3" fill="#f0f0f0"/>
<rect x="779" y="165" width="3" height="3" fill="#f0f0f0"/>
<rect x="782" y="165" width="3" height="3" fill="#f0f0f0"/>
<rect x="785" y="165" width="3" height="3" fill="#f0f0f0"/>
<rect x="788" y="165" width="3" height="3" fill="#f0f0f0"/>
<rect x="791" y="165" width="3" height="3" fill="#f0f0f0"/>
<rect x="794" y="165" width="3" height="3" fill="#f0f0f0"/>
<rect x="797" y="165" width="3" height="3" fill="#f0f0f0"/>
<rect x="800" y="165" width="3" height="3" fill="#f0f0f0"/>
<rect x="803" y="165" width="3" height="3" fill="#f0f0f0"/>
<rect x="806" y="165" width="3" height="3" fill="#f0f0f0"/>
<rect x="809" y="165" width="3" height="3" fill="#f0f0f0"/>
<rect x="812" y="165" width="3" height="3" fill="#f0f0f0"/>
<rect x="815" y="165" width="3" height="3" fill="#f0f0f0"/>
<rect x="818" y="165" width="3" height="3" fill="#f0f0f0"/>
<rect x="773" y="168" width="3" height="3" fill="#f0f0f0"/>
<rect x="776" y="168" width="3" height="3" fill="#f0f0f0"/>
<rect x="779" y="168" width="3" height="3" fill="#f0f0f0"/>
<rect x="782" y="168" width="3" height="3" fill="#f0f0f0"/>
<rect x="785" y="168" width="3" height="3" fill="#f0f0f0"/>
<rect x="788" y="168" width="3" height="3" fill="#f0f0f0"/>
<rect x="791" y="168" width="3" height="3" fill="#f0f0f0"/>
<rect x="794" y="168" width="3" height="3" fill="#f0f0f0"/>
<rect x="797" y="168" width="3" height="3" fill="#f0f0f0"/>
<rect x="800" y="168" width="3" height="3" fill="#f0f0f0"/>
<rect x="803" y="168" width="3" height="3" fill="#f0f0f0"/>
<rect x="806" y="168" width="3" height="3" fill="#f0f0f0"/>
<rect x="809" y="168" width="3" height="3" fill="#f0f0f0"/>
<rect x="812" y="168" width="3" height="3" fill="#f0f0f0"/>
<rect x="815" y="168" width="3" height="3" fill="#f0f0f0"/>
<rect x="818" y="168" width="3" height="3" fill="#f0f0f0"/>
<rect x="821" y="168" width="3" height="3" fill="#f0f0f0"/>
<rect x="773" y="171" width="3" height="3" fill="#f0f0f0"/>
<rect x="776" y="171" width="3" height="3" fill="#f0f0f0"/>
<rect x="779" y="171" width="3" height="3" fill="#f0f0f0"/>
<rect x="782" y="171" width="3" height="3" fill="#f0f0f0"/>
<rect x="785" y="171" width="3" height="3" fill="#f0f0f0"/>
<rect x="788" y="171" width="3" height="3" fill="#f0f0f0"/>
<rect x="791" y="171" width="3" height="3" fill="#f0f0f0"/>
<rect x="794" y="171" width="3" height="3" fill="#f0f0f0"/>
<rect x="797" y="171" width="3" height="3" fill="#f0f0f0"/>
<rect x="800" y="171" width="3" height="3" fill="#f0f0f0"/>
<rect x="803" y="171" width="3" height="3" fill="#f0f0f0"/>
<rect x="806" y="171" width="3" height="3" fill="#f0f0f0"/>
<rect x="809" y="171" width="3" height="3" fill="#f0f0f0"/>
<rect x="812" y="171" width="3" height="3" fill="#f0f0f0"/>
<rect x="815" y="171" width="3" height="3" fill="#f0f0f0"/>
<rect x="818" y="171" width="3" height="3" fill="#f0f0f0"/>
<rect x="821" y="171" width="3" height="3" fill="#f0f0f0"/>
<rect x="824" y="171" width="3" height="3" fill="#f0f0f0"/>
<rect x="773" y="174" width="3" height="3" fill="#f0f0f0"/>
<rect x="776" y="174" width="3" height="3" fill="#f0f0f0"/>
<rect x="779" y="174" width="3" height="3" fill="#f0f0f0"/>
<rect x="782" y="174" width="3" height="3" fill="#f0f0f0"/>
<rect x="785" y="174" width="3" height="3" fill="#f0f0f0"/>
<rect x="788" y="174" width="3" height="3" fill="#f0f0f0"/>
<rect x="791" y="174" width="3" height="3" fill="#f0f0f0"/>
<rect x="794" y="174" width="3" height="3" fill="#f0f0f0"/>
<rect x="797" y="174" width="3" height="3" fill="#f0f0f0"/>
<rect x="800" y="174" width="3" height="3" fill="#f0f0f0"/>
<rect x="803" y="174" width="3" height="3" fill="#f0f0f0"/>
<rect x="806" y="174" width="3" height="3" fill="#f0f0f0"/>
<rect x="809" y="174" width="3" height="3" fill="#f0f0f0"/>
<rect x="812" y="174" width="3" height="3" fill="#f0f0f0"/>
<rect x="815" y="174" width="3" height="3" fill="#f0f0f0"/>
<rect x="818" y="174" width="3" height="3" fill="#f0f0f0"/>
<rect x="821" y="174" width="3" height="3" fill="#f0f0f0"/>
<rect x="824" y="174" width="3" height="3" fill="#f0f0f0"/>
<rect x="770" y="177" width="3" height="3" fill="#f0f0f0"/>
<rect x="773" y="177" width="3" height="3" fill="#f0f0f0"/>
<rect x="776" y="177" width="3" height="3" fill="#f0f0f0"/>
<rect x="779" y="177" width="3" height="3" fill="#f0f0f0"/>
<rect x="782" y="177" width="3" height="3" fill="#f0f0f0"/>
<rect x="785" y="177" width="3" height="3" fill="#f0f0f0"/>
<rect x="788" y="177" width="3" height="3" fill="#f0f0f0"/>
<rect x="791" y="177" width="3" height="3" fill="#f0f0f0"/>
<rect x="794" y="177" width="3" height="3" fill="#f0f0f0"/>
<rect x="797" y="177" width="3" height="3" fill="#f0f0f0"/>
<rect x="800" y="177" width="3" height="3" fill="#f0f0f0"/>
<rect x="803" y="177" width="3" height="3" fill="#f0f0f0"/>
<rect x="806" y="177" width="3" height="3" fill="#f0f0f0"/>
<rect x="809" y="177" width="3" height="3" fill="#f0f0f0"/>
<rect x="812" y="177" width="3" height="3" fill="#f0f0f0"/>
<rect x="815" y="177" width="3" height="3" fill="#f0f0f0"/>
<rect x="818" y="177" width="3" height="3" fill="#f0f0f0"/>
<rect x="821" y="177" width="3" height="3" fill="#f0f0f0"/>
<rect x="824" y="177" width="3" height="3" fill="#f0f0f0"/>
<rect x="770" y="180" width="3" height="3" fill="#f0f0f0"/>
<rect x="773" y="180" width="3" height="3" fill="#f0f0f0"/>
<rect x="776" y="180" width="3" height="3" fill="#f0f0f0"/>
<rect x="779" y="180" width="3" height="3" fill="#f0f0f0"/>
<rect x="782" y="180" width="3" height="3" fill="#f0f0f0"/>
<rect x="785" y="180" width="3" height="3" fill="#f0f0f0"/>
<rect x="788" y="180" width="3" height="3" fill="#f0f0f0"/>
<rect x="791" y="180" width="3" height="3" fill="#f0f0f0"/>
<rect x="794" y="180" width="3" height="3" fill="#f0f0f0"/>
<rect x="797" y="180" width="3" height="3" fill="#f0f0f0"/>
<rect x="800" y="180" width="3" height="3" fill="#f0f0f0"/>
<rect x="803" y="180" width="3" height="3" fill="#f0f0f0"/>
<rect x="806" y="180" width="3" height="3" fill="#f0f0f0"/>
<rect x="809" y="180" width="3" height="3" fill="#f0f0f0"/>
<rect x="812" y="180" width="3" height="3" fill="#f0f0f0"/>
<rect x="815" y="180" width="3" height="3" fill="#f0f0f0"/>
<rect x="818" y="180" width="3" height="3" fill="#f0f0f0"/>
<rect x="821" y="180" width="3" height="3" fill="#f0f0f0"/>
<rect x="824" y="180" width="3" height="3" fill="#f0f0f0"/>
<rect x="830" y="180" width="3" height="3" fill="#f0f0f0"/>
<rect x="833" y="180" width="3" height="3" fill="#f0f0f0"/>
<rect x="836" y="180" width="3" height="3" fill="#f0f0f0"/>
<rect x="839" y="180" width="3" height="3" fill="#f0f0f0"/>
<rect x="842" y="180" width="3" height="3" fill="#f0f0f0"/>
<rect x="770" y="183" width="3" height="3" fill="#f0f0f0"/>
<rect x="773" y="183" width="3" height="3" fill="#f0f0f0"/>
<rect x="785" y="183" width="3" height="3" fill="#f0f0f0"/>
<rect x="788" y="183" width="3" height="3" fill="#f0f0f0"/>
<rect x="791" y="183" width="3" height="3" fill="#f0f0f0"/>
<rect x="794" y="183" width="3" height="3" fill="#f0f0f0"/>
<rect x="806" y="183" width="3" height="3" fill="#f0f0f0"/>
<rect x="809" y="183" width="3" height="3" fill="#f0f0f0"/>
<rect x="812" y="183" width="3" height="3" fill="#f0f0f0"/>
<rect x="815" y="183" width="3" height="3" fill="#f0f0f0"/>
<rect x="818" y="183" width="3" height="3" fill="#f0f0f0"/>
<rect x="821" y="183" width="3" height="3" fill="#f0f0f0"/>
<rect x="824" y="183" width="3" height="3" fill="#f0f0f0"/>
<rect x="827" y="183" width="3" height="3" fill="#f0f0f0"/>
<rect x="830" y="183" width="3" height="3" fill="#f0f0f0"/>
<rect x="833" y="183" width="3" height="3" fill="#f0f0f0"/>
<rect x="836" y="183" width="3" height="3" fill="#f0f0f0"/>
<rect x="839" y="183" width="3" height="3" fill="#f0f0f0"/>
<rect x="842" y="183" width="3" height="3" fill="#f0f0f0"/>
<rect x="845" y="183" width="3" height="3" fill="#f0f0f0"/>
<rect x="770" y="186" width="3" height="3" fill="#f0f0f0"/>
<rect x="773" y="186" width="3" height="3" fill="#f0f0f0"/>
<rect x="776" y="186" width="3" height="3" fill="#f0f0f0"/>
<rect x="779" y="186" width="3" height="3" fill="#f0f0f0"/>
<rect x="782" y="186" width="3" height="3" fill="#f0f0f0"/>
<rect x="785" y="186" width="3" height="3" fill="#f0f0f0"/>
<rect x="788" y="186" width="3" height="3" fill="#f0f0f0"/>
<rect x="791" y="186" width="3" height="3" fill="#f0f0f0"/>
<rect x="794" y="186" width="3" height="3" fill="#f0f0f0"/>
<rect x="797" y="186" width="3" height="3" fill="#f0f0f0"/>
<rect x="800" y="186" width="3" height="3" fill="#f0f0f0"/>
<rect x="803" y="186" width="3" height="3" fill="#f0f0f0"/>
<rect x="806" y="186" width="3" height="3" fill="#f0f0f0"/>
<rect x="809" y="186" width="3" height="3" fill="#f0f0f0"/>
<rect x="812" y="186" width="3" height="3" fill="#f0f0f0"/>
<rect x="815" y="186" width="3" height="3" fill="#f0f0f0"/>
<rect x="818" y="186" width="3" height="3" fill="#f0f0f0"/>
<rect x="821" y="186" width="3" height="3" fill="#f0f0f0"/>
<rect x="824" y="186" width="3" height="3" fill="#f0f0f0"/>
<rect x="827" y="186" width="3" height="3" fill="#f0f0f0"/>
<rect x="830" y="186" width="3" height="3" fill="#f0f0f0"/>
<rect x="833" y="186" width="3" height="3" fill="#f0f0f0"/>
<rect x="836" y="186" width="3" height="3" fill="#f0f0f0"/>
<rect x="839" y="186" width="3" height="3" fill="#f0f0f0"/>
<rect x="842" y="186" width="3" height="3" fill="#f0f0f0"/>
<rect x="845" y="186" width="3" height="3" fill="#f0f0f0"/>
<rect x="770" y="189" width="3" height="3" fill="#f0f0f0"/>
<rect x="773" y="189" width="3" height="3" fill="#f0f0f0"/>
<rect x="776" y="189" width="3" height="3" fill="#f0f0f0"/>
<rect x="779" y="189" width="3" height="3" fill="#f0f0f0"/>
<rect x="782" y="189" width="3" height="3" fill="#f0f0f0"/>
<rect x="785" y="189" width="3" height="3" fill="#f0f0f0"/>
<rect x="788" y="189" width="3" height="3" fill="#f0f0f0"/>
<rect x="791" y="189" width="3" height="3" fill="#f0f0f0"/>
<rect x="794" y="189" width="3" height="3" fill="#f0f0f0"/>
<rect x="797" y="189" width="3" height="3" fill="#f0f0f0"/>
<rect x="800" y="189" width="3" height="3" fill="#f0f0f0"/>
<rect x="803" y="189" width="3" height="3" fill="#f0f0f0"/>
<rect x="806" y="189" width="3" height="3" fill="#f0f0f0"/>
<rect x="809" y="189" width="3" height="3" fill="#f0f0f0"/>
<rect x="812" y="189" width="3" height="3" fill="#f0f0f0"/>
<rect x="815" y="189" width="3" height="3" fill="#f0f0f0"/>
<rect x="818" y="189" width="3" height="3" fill="#f0f0f0"/>
<rect x="821" y="189" width="3" height="3" fill="#f0f0f0"/>
<rect x="824" y="189" width="3" height="3" fill="#f0f0f0"/>
<rect x="827" y="189" width="3" height="3" fill="#f0f0f0"/>
<rect x="839" y="189" width="3" height="3" fill="#f0f0f0"/>
<rect x="842" y="189" width="3" height="3" fill="#f0f0f0"/>
<rect x="845" y="189" width="3" height="3" fill="#f0f0f0"/>
<rect x="773" y="192" width="3" height="3" fill="#f0f0f0"/>
<rect x="776" y="192" width="3" height="3" fill="#f0f0f0"/>
<rect x="779" y="192" width="3" height="3" fill="#f0f0f0"/>
<rect x="782" y="192" width="3" height="3" fill="#f0f0f0"/>
<rect x="785" y="192" width="3" height="3" fill="#f0f0f0"/>
<rect x="788" y="192" width="3" height="3" fill="#f0f0f0"/>
<rect x="791" y="192" width="3" height="3" fill="#f0f0f0"/>
<rect x="794" y="192" width="3" height="3" fill="#f0f0f0"/>
<rect x="797" y="192" width="3" height="3" fill="#f0f0f0"/>
<rect x="800" y="192" width="3" height="3" fill="#f0f0f0"/>
<rect x="803" y="192" width="3" height="3" fill="#f0f0f0"/>
<rect x="806" y="192" width="3" height="3" fill="#f0f0f0"/>
<rect x="809" y="192" width="3" height="3" fill="#f0f0f0"/>
<rect x="812" y="192" width="3" height="3" fill="#f0f0f0"/>
<rect x="815" y="192" width="3" height="3" fill="#f0f0f0"/>
<rect x="818" y="192" width="3" height="3" fill="#f0f0f0"/>
<rect x="776" y="195" width="3" height="3" fill="#f0f0f0"/>
<rect x="779" y="195" width="3" height="3" fill="#f0f0f0"/>
<rect x="782" y="195" width="3" height="3" fill="#f0f0f0"/>
<rect x="785" y="195" width="3" height="3" fill="#f0f0f0"/>
<rect x="788" y="195" width="3" height="3" fill="#f0f0f0"/>
<rect x="791" y="195" width="3" height="3" fill="#f0f0f0"/>
<rect x="794" y="195" width="3" height="3" fill="#f0f0f0"/>
<rect x="797" y="195" width="3" height="3" fill="#f0f0f0"/>
<rect x="800" y="195" width="3" height="3" fill="#f0f0f0"/>
<rect x="803" y="195" width="3" height="3" fill="#f0f0f0"/>
<rect x="806" y="195" width="3" height="3" fill="#f0f0f0"/>
<rect x="809" y="195" width="3" height="3" fill="#f0f0f0"/>
<rect x="812" y="195" width="3" height="3" fill="#f0f0f0"/>
</g>
<text class="zz z1" x="790" y="146" font-size="9"  fill="#808080">z</text>
<text class="zz z2" x="797" y="140" font-size="11" fill="#9a9a9a">z</text>
<text class="zz z3" x="805" y="134" font-size="13" fill="#c8c8c8">z</text>
</g>

<text x="46" y="316" font-size="10.5" letter-spacing="1" fill="#808080">~ $ type a command &#183; a retro window opens &#183; me.lucenity.dev</text>
<rect class="scan" x="18" y="42" width="844" height="2" fill="#f4f4f4"/>
</svg>
