<svg xmlns="http://www.w3.org/2000/svg" viewBox="0 0 32 32"><rect width="32" height="32" rx="6" fill="#0d0d0d"/><g fill="#f4f4f4"><rect x="5.0" y="8.0" width="1" height="1"/><rect x="13.0" y="8.0" width="1" height="1"/><rect x="4.0" y="9.0" width="3" height="1"/><rect x="12.0" y="9.0" width="3" height="1"/><rect x="4.0" y="10.0" width="1" height="1"/><rect x="6.0" y="10.0" width="2" height="1"/><rect x="12.0" y="10.0" width="1" height="1"/><rect x="14.0" y="10.0" width="2" height="1"/><rect x="4.0" y="11.0" width="1" height="1"/><rect x="7.0" y="11.0" width="2" height="1"/><rect x="11.0" y="11.0" width="2" height="1"/><rect x="15.0" y="11.0" width="2" height="1"/><rect x="4.0" y="12.0" width="1" height="1"/><rect x="6.0" y="12.0" width="8" height="1"/><rect x="16.0" y="12.0" width="2" height="1"/><rect x="4.0" y="13.0" width="16" height="1"/><rect x="4.0" y="14.0" width="17" height="1"/><rect x="4.0" y="15.0" width="18" height="1"/><rect x="4.0" y="16.0" width="18" height="1"/><rect x="3.0" y="17.0" width="19" height="1"/><rect x="3.0" y="18.0" width="19" height="1"/><rect x="23.0" y="18.0" width="5" height="1"/><rect x="3.0" y="19.0" width="2" height="1"/><rect x="8.0" y="19.0" width="4" height="1"/><rect x="15.0" y="19.0" width="14" height="1"/><rect x="3.0" y="20.0" width="26" height="1"/><rect x="3.0" y="21.0" width="20" height="1"/><rect x="26.0" y="21.0" width="3" height="1"/><rect x="4.0" y="22.0" width="16" height="1"/><rect x="5.0" y="23.0" width="13" height="1"/></g></svg>